<?xml version="1.0" encoding="UTF-8" standalone="no"?>
<!-- Created with Inkscape (http://www.inkscape.org/) -->

<svg
   xmlns:dc="http://purl.org/dc/elements/1.1/"
   xmlns:cc="http://creativecommons.org/ns#"
   xmlns:rdf="http://www.w3.org/1999/02/22-rdf-syntax-ns#"
   xmlns:svg="http://www.w3.org/2000/svg"
   xmlns="http://www.w3.org/2000/svg"
   xmlns:sodipodi="http://sodipodi.sourceforge.net/DTD/sodipodi-0.dtd"
   xmlns:inkscape="http://www.inkscape.org/namespaces/inkscape"
   width="210mm"
   height="297mm"
   viewBox="0 0 210 297"
   version="1.1"
   id="svg8"
   inkscape:version="0.92.3 (2405546, 2018-03-11)"
   sodipodi:docname="sign.svg">
  <defs
     id="defs2" />
  <sodipodi:namedview
     id="base"
     pagecolor="#ffffff"
     bordercolor="#666666"
     borderopacity="1.0"
     inkscape:pageopacity="0.0"
     inkscape:pageshadow="2"
     inkscape:zoom="0.35"
     inkscape:cx="400"
     inkscape:cy="560"
     inkscape:document-units="mm"
     inkscape:current-layer="layer1"
     showgrid="false"
     inkscape:window-width="1366"
     inkscape:window-height="705"
     inkscape:window-x="-8"
     inkscape:window-y="-8"
     inkscape:window-maximized="1" />
  <metadata
     id="metadata5">
    <rdf:RDF>
      <cc:Work
         rdf:about="">
        <dc:format>image/svg+xml</dc:format>
        <dc:type
           rdf:resource="http://purl.org/dc/dcmitype/StillImage" />
        <dc:title></dc:title>
      </cc:Work>
    </rdf:RDF>
  </metadata>
  <g
     inkscape:label="Layer 1"
     inkscape:groupmode="layer"
     id="layer1">
    <path
       style="fill:#00ff00;stroke-width:0.26458332"
       id="path22"
       d="m 27.824467,244.16488 c 7.781221,-8.38487 16.961942,-15.64625 25.820398,-22.8472 14.252985,-11.91939 30.218417,-21.55252 44.664209,-33.22011 3.116546,-2.51717 6.103166,-5.19108 9.154746,-7.78662 16.68588,-15.03598 31.72968,-32.01637 43.86132,-50.96319 2.67627,-4.1797 5.05599,-8.54203 7.58398,-12.81304 8.54836,-15.69702 15.96155,-32.096308 20.41275,-49.44378 0.31604,-2.274215 1.95752,-6.578076 0.21361,-8.734623 -0.75406,-0.932479 -1.45865,-0.777391 -2.57385,-0.933744 0.14134,-1.35178 -7.53744,3.784891 -5.97322,2.328802 1.15981,-1.079643 5.21987,-3.479697 4.1584,-2.30323 -1.49605,1.658128 -3.7478,2.438971 -5.51403,3.805716 -5.57251,4.312129 -8.35599,7.243948 -13.51107,12.169691 -11.22917,11.018329 -20.35369,23.852496 -28.88968,36.995848 -12.552,19.76473 -23.97688,40.2071 -34.730457,60.99585 -10.925685,21.82314 -21.789503,43.67715 -32.93637,65.38855 -5.368017,10.3036 -10.753322,20.5988 -15.991713,30.96913 -1.909672,3.82972 -4.006527,7.56103 -6.086009,11.29986 -2.155991,3.69321 -0.898808,1.78665 -10.526911,5.10074 -0.345135,0.1188 0.0371,-0.73665 0.144907,-1.0854 0.140825,-0.45551 0.376301,-0.87694 0.593051,-1.30162 0.545203,-1.06817 1.233709,-2.15387 1.853935,-3.17413 6.246304,-8.88415 12.470146,-17.77481 18.988775,-26.46282 2.596968,-3.29481 5.319059,-6.49212 8.102693,-9.63043 0.02593,-0.0292 2.641663,-2.95775 3.041472,-3.21162 3.39561,-2.1562 6.930216,-4.08529 10.395323,-6.12794 0.262671,0.052 0.562512,0.0115 0.788014,0.15587 1.295678,0.82956 0.946039,2.85423 0.721217,4.07187 -0.255936,1.40557 -0.141094,1.66018 1.22813,1.80437 1.589744,-0.12353 2.718329,0.51156 4.120118,1.07277 0.319942,0.0948 0.909283,0.29442 1.240592,0.28241 1.836483,-0.0666 4.079332,-1.26166 5.758899,-1.92744 2.779437,-1.09231 5.523029,-2.27805 8.470958,-2.82484 3.645268,-0.41837 7.352631,0.0845 11.011046,0.25149 7.155,0.28479 14.31664,0.31261 21.47624,0.31898 4.615,0.11256 8.76981,0.0638 13.20164,-1.29283 3.46808,-1.51262 10.45846,-5.60399 -4.48216,2.80318 -0.51028,0.28713 0.99752,-0.61348 1.4924,-0.92641 5.13216,-3.24526 -2.0144,1.23297 2.71114,-1.72282 4.16828,-2.55975 8.27942,-5.26308 12.73892,-7.28388 0,0 -8.7,6.94516 -8.7,6.94516 v 0 c -5.55116,2.91328 12.26489,-7.24619 6.26505,-3.64493 -6.15656,3.65963 -11.97625,8.12075 -18.75786,10.54175 -4.31806,1.07098 -8.7086,1.03251 -13.13628,0.87052 -7.18705,-0.0734 -14.37444,-0.14571 -21.56029,-0.29928 -3.692816,-0.10211 -7.45872,-0.52483 -11.114352,0.16261 -2.838603,0.69538 -5.529193,1.82526 -8.250121,2.87684 -2.448785,0.9333 -5.106082,2.25484 -7.697689,1.10193 -1.305076,-0.56471 -2.595102,-0.80362 -4.014198,-0.93602 -1.544076,-0.54659 -2.377456,-1.60108 -2.066903,-3.30265 0.17522,-0.75057 0.47403,-1.58203 0.32322,-2.36645 -0.0043,-0.0223 -0.02606,0.0373 -0.03908,0.0559 -0.128368,0.0661 -0.256733,0.13222 -0.385101,0.19833 2.806046,-1.6764 5.538237,-3.4831 8.418137,-5.02918 0.571277,-0.30669 -0.988613,0.84057 -1.455008,1.291 -3.752315,3.62393 -7.028018,7.73476 -10.43388,11.67126 -6.467129,8.44896 -12.622784,17.1155 -18.363576,26.07694 -1.730822,2.78889 -0.303043,0.42074 -1.78381,3.05163 -0.198183,0.35213 -0.416446,0.69267 -0.614442,1.04489 -0.103791,0.18462 -0.104992,0.46304 -0.290594,0.56507 -3.303458,1.81626 -6.699348,3.4598 -10.076596,5.13487 -0.201139,0.0998 0.359175,-0.2695 0.538761,-0.40425 2.304682,-3.68703 4.353449,-7.5319 6.394299,-11.36907 5.608971,-10.65882 11.897609,-20.95205 17.462942,-31.63669 11.430624,-21.62624 22.030377,-43.66714 33.120028,-65.46768 1.91616,-3.71732 3.793492,-7.45491 5.748477,-11.15196 8.844415,-16.72557 18.524346,-32.99577 27.859476,-49.44758 8.63154,-13.32666 18.17021,-26.123656 29.35546,-37.436321 5.73008,-5.614104 11.36681,-11.655954 18.24814,-15.915601 0.0781,-0.04838 12.74168,-8.155558 17.5478,-9.589682 0.93579,-0.279233 1.93625,-0.256146 2.90438,-0.384217 0.64502,0.204747 1.34379,0.285046 1.93506,0.614246 3.74478,2.084974 1.4854,7.838744 0.83128,10.812885 -5.31932,17.641395 -13.24565,34.353219 -22.08856,50.4853 -2.50781,4.28354 -4.87414,8.65311 -7.52342,12.85062 -11.94974,18.93312 -26.75845,35.93858 -43.30246,50.97875 -3.0306,2.60432 -5.99249,5.29081 -9.09182,7.81297 -14.303254,11.63963 -30.159362,21.20296 -44.305667,33.04574 -8.435131,6.93202 -16.950947,13.89971 -24.366998,21.94209 0,0 -10.267219,4.45286 -10.267219,4.45286 z"
       inkscape:connector-curvature="0" />
  </g>
</svg>
